REM DIRINDEX 1\2,1\3,1\4,1\5
REM DIRNAME folder01,folder02,folder03,folder04,folder05
TITLE ""
FILE "1Q_t_0939-0948.mp3" MP3
  TRACK 01 AUDIO
    TITLE "3:cjc004_3721"
    INDEX 01 00:00:00
  TRACK 02 AUDIO
    TITLE "0:"
    INDEX 01 00:01:03
  TRACK 03 AUDIO
    TITLE "4:cjc004_3722"
    INDEX 01 00:01:34
  TRACK 04 AUDIO
    TITLE "0:"
    INDEX 01 00:02:36
  TRACK 05 AUDIO
    TITLE "5:cjc004_3723"
    INDEX 01 00:02:63
  TRACK 06 AUDIO
    TITLE "0:"
    INDEX 01 00:07:05
  TRACK 07 AUDIO
    TITLE "3:cjc004_3724"
    INDEX 01 00:07:58
  TRACK 08 AUDIO
    TITLE "0:"
    INDEX 01 00:08:72
  TRACK 09 AUDIO
    TITLE "4:cjc004_3725"
    INDEX 01 00:09:24
  TRACK 10 AUDIO
    TITLE "0:"
    INDEX 01 00:10:33
  TRACK 11 AUDIO
    TITLE "5:cjc004_3726"
    INDEX 01 00:10:59
  TRACK 12 AUDIO
    TITLE "0:"
    INDEX 01 00:14:43
  TRACK 13 AUDIO
    TITLE "3:cjc004_3727"
    INDEX 01 00:15:21
  TRACK 14 AUDIO
    TITLE "0:"
    INDEX 01 00:16:42
  TRACK 15 AUDIO
    TITLE "4:cjc004_3728"
    INDEX 01 00:16:71
  TRACK 16 AUDIO
    TITLE "0:"
    INDEX 01 00:18:05
  TRACK 17 AUDIO
    TITLE "5:cjc004_3729"
    INDEX 01 00:18:29
  TRACK 18 AUDIO
    TITLE "0:"
    INDEX 01 00:23:14
  TRACK 19 AUDIO
    TITLE "3:cjc004_3730"
    INDEX 01 00:23:69
  TRACK 20 AUDIO
    TITLE "0:"
    INDEX 01 00:25:09
  TRACK 21 AUDIO
    TITLE "4:cjc004_3731"
    INDEX 01 00:25:37
  TRACK 22 AUDIO
    TITLE "0:"
    INDEX 01 00:26:54
  TRACK 23 AUDIO
    TITLE "5:cjc004_3732"
    INDEX 01 00:27:02
  TRACK 24 AUDIO
    TITLE "0:"
    INDEX 01 00:30:30
  TRACK 25 AUDIO
    TITLE "3:cjc004_3733"
    INDEX 01 00:31:12
  TRACK 26 AUDIO
    TITLE "0:"
    INDEX 01 00:32:58
  TRACK 27 AUDIO
    TITLE "4:cjc004_3734"
    INDEX 01 00:33:05
  TRACK 28 AUDIO
    TITLE "0:"
    INDEX 01 00:34:45
  TRACK 29 AUDIO
    TITLE "5:cjc004_3735"
    INDEX 01 00:34:71
  TRACK 30 AUDIO
    TITLE "0:"
    INDEX 01 00:39:33
  TRACK 31 AUDIO
    TITLE "3:cjc004_3736"
    INDEX 01 00:40:09
  TRACK 32 AUDIO
    TITLE "0:"
    INDEX 01 00:41:40
  TRACK 33 AUDIO
    TITLE "4:cjc004_3737"
    INDEX 01 00:41:65
  TRACK 34 AUDIO
    TITLE "0:"
    INDEX 01 00:43:39
  TRACK 35 AUDIO
    TITLE "5:cjc004_3738"
    INDEX 01 00:43:62
  TRACK 36 AUDIO
    TITLE "0:"
    INDEX 01 00:48:40
  TRACK 37 AUDIO
    TITLE "3:cjc004_3739"
    INDEX 01 00:49:14
  TRACK 38 AUDIO
    TITLE "0:"
    INDEX 01 00:50:35
  TRACK 39 AUDIO
    TITLE "4:cjc004_3740"
    INDEX 01 00:50:60
  TRACK 40 AUDIO
    TITLE "0:"
    INDEX 01 00:52:69
  TRACK 41 AUDIO
    TITLE "5:cjc004_3741"
    INDEX 01 00:53:21
  TRACK 42 AUDIO
    TITLE "0:"
    INDEX 01 00:58:01
  TRACK 43 AUDIO
    TITLE "3:cjc004_3742"
    INDEX 01 00:58:56
  TRACK 44 AUDIO
    TITLE "0:"
    INDEX 01 00:59:69
  TRACK 45 AUDIO
    TITLE "4:cjc004_3743"
    INDEX 01 01:00:21
  TRACK 46 AUDIO
    TITLE "0:"
    INDEX 01 01:01:68
  TRACK 47 AUDIO
    TITLE "5:cjc004_3744"
    INDEX 01 01:02:18
  TRACK 48 AUDIO
    TITLE "0:"
    INDEX 01 01:06:26
  TRACK 49 AUDIO
    TITLE "3:cjc004_3745"
    INDEX 01 01:07:04
  TRACK 50 AUDIO
    TITLE "0:"
    INDEX 01 01:08:19
  TRACK 51 AUDIO
    TITLE "4:cjc004_3746"
    INDEX 01 01:08:42
  TRACK 52 AUDIO
    TITLE "0:"
    INDEX 01 01:09:61
  TRACK 53 AUDIO
    TITLE "5:cjc004_3747"
    INDEX 01 01:10:08
  TRACK 54 AUDIO
    TITLE "0:"
    INDEX 01 01:14:43
  TRACK 55 AUDIO
    TITLE "3:cjc004_3748"
    INDEX 01 01:15:19
  TRACK 56 AUDIO
    TITLE "0:"
    INDEX 01 01:16:44
  TRACK 57 AUDIO
    TITLE "4:cjc004_3749"
    INDEX 01 01:16:65
  TRACK 58 AUDIO
    TITLE "0:"
    INDEX 01 01:17:69
  TRACK 59 AUDIO
    TITLE "5:cjc004_3750"
    INDEX 01 01:18:17
  TRACK 60 AUDIO
    TITLE "0:"
    INDEX 01 01:23:28
